<svg width="159" height="159" viewBox="0 0 159 159" fill="none" xmlns="http://www.w3.org/2000/svg">
<g filter="url(#filter0_d_851_14280)">
<rect x="44.7539" y="24" width="59.7904" height="59.7904" rx="12.8122" transform="rotate(12.3161 44.7539 24)" fill="#FF8344"/>
<g clip-path="url(#clip0_851_14280)">
<path d="M64.1865 69.9896L69.4257 66.4146L73.6816 67.3438C75.4431 67.7284 77.1859 66.6103 77.5704 64.8488L79.8366 54.4691C80.2212 52.7076 79.1031 50.9648 77.3416 50.5803L62.5169 47.3436C60.7554 46.959 59.027 48.0679 58.6306 49.8268L56.3053 60.1936C55.9063 61.9643 57.0219 63.7189 58.7952 64.1061L63.0393 65.0327" stroke="white" stroke-width="1.7083" stroke-linecap="round" stroke-linejoin="round"/>
<path d="M64.038 53.7686L73.2118 55.7715" stroke="white" stroke-width="1.7083" stroke-linecap="round" stroke-linejoin="round"/>
<path d="M63.1086 58.0244L67.6956 59.0259" stroke="white" stroke-width="1.7083" stroke-linecap="round" stroke-linejoin="round"/>
</g>
</g>
<defs>
<filter id="filter0_d_851_14280" x="0.435669" y="0.435547" width="158.297" height="158.297" filterUnits="userSpaceOnUse" color-interpolation-filters="sRGB">
<feFlood flood-opacity="0" result="BackgroundImageFix"/>
<feColorMatrix in="SourceAlpha" type="matrix" values="0 0 0 0 0 0 0 0 0 0 0 0 0 0 0 0 0 0 127 0" result="hardAlpha"/>
<feOffset dx="12" dy="20"/>
<feGaussianBlur stdDeviation="23"/>
<feComposite in2="hardAlpha" operator="out"/>
<feColorMatrix type="matrix" values="0 0 0 0 1 0 0 0 0 0.513726 0 0 0 0 0.266667 0 0 0 0.25 0"/>
<feBlend mode="normal" in2="BackgroundImageFix" result="effect1_dropShadow_851_14280"/>
<feBlend mode="normal" in="SourceGraphic" in2="effect1_dropShadow_851_14280" result="shape"/>
</filter>
<clipPath id="clip0_851_14280">
<rect width="29.0411" height="29.0411" fill="white" transform="translate(56.4954 42.3008) rotate(12.3161)"/>
</clipPath>
</defs>
</svg>
