<svg width="50" height="65" viewBox="0 0 50 65" fill="none" xmlns="http://www.w3.org/2000/svg">
<g clip-path="url(#clip0_851_14225)">
<path d="M4.5991 1.5998L2.8991 0.299805C-0.100904 4.49981 -0.000903388 9.7998 3.1991 13.9998C5.8991 17.4998 5.8991 21.8998 3.1991 25.4998C-0.000902514 29.7998 -0.000902273 35.2998 3.1991 39.5998C5.8991 43.0998 5.8991 47.4998 3.1991 51.0998C-0.000901403 55.1998 -0.100901 60.5998 2.8991 64.7998L4.5991 63.4998C3.3991 61.7998 2.7991 59.9998 2.7991 58.0998C2.7991 56.0998 3.4991 54.0998 4.7991 52.3998C6.3991 50.2998 7.1991 47.8998 7.1991 45.3998C7.1991 42.8998 6.3991 40.4998 4.7991 38.3998C2.0991 34.8998 2.0991 30.4998 4.7991 26.8998C7.9991 22.5998 7.9991 17.0998 4.7991 12.7998C2.1991 9.2998 2.0991 5.0998 4.5991 1.5998Z" fill="#008060"/>
<path d="M13.7991 63.4998C11.3991 59.9998 11.499 55.7998 14.099 52.3998C17.299 48.0998 17.299 42.5998 14.099 38.2998C12.799 36.4998 12.099 34.4998 12.099 32.5998C12.099 30.5998 12.799 28.5998 14.099 26.8998C15.699 24.7998 16.499 22.3998 16.499 19.8998C16.499 17.3998 15.699 14.9998 14.099 12.8998C11.499 9.4998 11.399 5.2998 13.799 1.7998L12.099 0.499802C9.09905 4.6998 9.19905 10.0998 12.399 14.1998C15.099 17.6998 15.099 22.0998 12.399 25.6998C9.19905 29.9998 9.19905 35.4998 12.399 39.7998C15.099 43.2998 15.099 47.6998 12.399 51.2998C9.19905 55.1998 9.09905 60.5998 12.0991 64.7998L13.7991 63.4998Z" fill="#008060"/>
<path d="M23.1991 26.7998C24.7991 24.6998 25.5991 22.2998 25.5991 19.7998C25.5991 17.2998 24.7991 14.8998 23.1991 12.7998C20.5991 9.3998 20.4991 5.19981 22.8991 1.69981L21.1991 0.399803C18.1991 4.5998 18.2991 9.8998 21.4991 14.0998C24.1991 17.5998 24.1991 21.9998 21.4991 25.5998C18.2991 29.8998 18.2991 35.3998 21.4991 39.6998C24.1991 43.1998 24.1991 47.6998 21.4991 51.1998C18.3991 55.1998 18.2991 60.5998 21.1991 64.7998L22.8991 63.4998C20.4991 59.9998 20.5991 55.7998 23.1991 52.3998C26.3991 48.0998 26.3991 42.5998 23.1991 38.2998C21.8991 36.4998 21.1991 34.4998 21.1991 32.5998C21.1991 30.5998 21.8991 28.5998 23.1991 26.7998Z" fill="#008060"/>
<path d="M47.3991 26.7998C48.9991 24.6998 49.7991 22.2998 49.7991 19.7998C49.7991 17.2998 48.9991 14.8998 47.3991 12.7998C44.7991 9.3998 44.6991 5.19981 47.0991 1.69981L45.3991 0.399803C42.3991 4.5998 42.4991 9.8998 45.6991 14.0998C48.3991 17.5998 48.3991 21.9998 45.6991 25.5998C42.4991 29.8998 42.4991 35.3998 45.6991 39.6998C48.3991 43.1998 48.3991 47.6998 45.6991 51.1998C42.4991 55.1998 42.3991 60.5998 45.3991 64.7998L47.0991 63.4998C44.6991 59.9998 44.7991 55.7998 47.3991 52.3998C50.5991 48.0998 50.5991 42.5998 47.3991 38.2998C46.0991 36.4998 45.3991 34.4998 45.3991 32.5998C45.3991 30.5998 45.9991 28.5998 47.3991 26.7998Z" fill="#008060"/>
</g>
<defs>
<clipPath id="clip0_851_14225">
<rect width="64.5" height="49.1" fill="white" transform="translate(0.699219 64.7998) rotate(-90)"/>
</clipPath>
</defs>
</svg>
