<svg width="811" height="800" viewBox="0 0 811 800" fill="none" xmlns="http://www.w3.org/2000/svg">
<path d="M778.86 830.939C779.769 828.209 780.12 826.747 780.759 823.455C775.867 842.323 781.233 819.558 782.217 814.843C782.419 813.937 782.612 812.969 782.854 812.069C785.335 802.921 787.914 793.528 789.862 784.215C788.061 791.834 786.072 799.384 783.982 806.938C784.443 804.396 784.943 801.86 785.443 799.325C784.429 803.096 783.376 806.862 782.206 810.609C781.896 811.938 781.587 813.266 781.261 814.572C780.016 820.064 778.557 825.642 776.779 830.969C776.744 831.063 776.332 832.156 776.299 831.732C776.17 832.17 776.041 832.609 775.929 833.07L778.86 830.939ZM794.055 819.892C794.229 819.042 794.36 818.464 794.395 818.369C798.061 802.082 801.478 786.115 804.177 769.635C808.544 748.528 807.661 751.722 803.724 768.585C803.63 770.067 803.513 771.566 803.397 773.064C802.639 776.857 801.803 780.637 800.906 784.427C800.924 784.311 800.959 784.216 800.978 784.099C800.668 785.048 800.435 786.149 800.07 787.07C813.173 682.988 795.793 768.247 788.114 801.245C788.54 798.797 788.949 796.327 789.336 793.873C789.336 793.873 785.993 807.476 786.607 802.823C786.304 803.354 786.513 802.029 786.519 801.99C786.697 801.24 786.853 800.506 787.031 799.756C787.959 795.392 788.864 791.043 789.698 786.644C790.425 783.426 795.937 758.728 791.945 775.562C791.945 775.562 792.029 775.156 792.082 774.945C791.433 778.176 790.728 781.378 789.979 784.613C787.978 794.895 785.651 804.967 783.188 815.137C782.248 819.2 781.275 823.218 780.202 827.24C781.328 823.765 782.422 820.245 783.455 816.736C783.377 817.103 783.316 817.492 783.215 817.876C782.16 821.022 782.224 820.873 783.133 818.142C783.133 818.142 782.832 819.292 782.746 819.838C783.22 818.355 783.67 816.89 784.105 815.402C785.817 809.604 787.491 803.801 789.103 798.008C788.692 799.859 788.241 801.704 787.807 803.572C787.848 803.438 787.866 803.322 787.907 803.188C786.893 807.34 785.824 811.462 784.732 815.601C784.761 815.545 784.832 815.217 784.826 815.256C784.832 815.217 784.722 815.539 784.732 815.601C784.306 817.29 783.841 818.973 783.337 820.65C783.406 820.461 783.507 820.078 783.507 820.078C782.659 823.177 781.759 826.348 780.798 829.53L794.055 819.892ZM799.285 816.09C802.731 803.86 807.134 787.969 800.597 813.722C800.638 813.589 800.679 813.456 800.697 813.339C800.525 814.05 800.33 814.778 800.142 815.467L801.382 814.565C805.731 797.748 808.621 782.715 810.135 764.889C809.627 768.741 809.003 772.575 808.3 776.396C808.959 769.813 809.378 763.232 809.464 756.619C809.883 752.693 810.42 751.44 810.18 747.27C809.997 749.058 809.494 752.631 809.494 752.631C809.551 750.245 809.536 747.807 809.47 745.441C809.389 748.742 809.19 752.024 808.891 755.31C804.308 778.299 800.98 796.616 808.488 759.259C806.159 779.471 801.298 798.902 795.971 818.499L799.285 816.09ZM297.487 -26.0504C285.032 -5.54641 275.98 9.06907 273.421 12.5162L243.424 53.1178C256.235 38.4591 238.332 63.8891 236.457 67.0454C232.06 74.5531 227.615 82.6123 222.676 89.7548C223.178 89.3553 223.697 88.9783 224.199 88.5787C222.393 90.7879 220.611 92.9808 218.805 95.19C219.149 94.9052 219.844 94.2966 219.844 94.2966C219.117 95.2394 218.35 96.1759 217.623 97.1186C216.793 98.2048 215.924 99.2849 215.094 100.371C216.084 99.41 217.073 98.4489 218.08 97.5104C220.801 94.8076 223.507 92.0822 226.196 89.3342C224.575 91.5128 222.937 93.6688 221.3 95.8248C220.496 96.6157 219.582 97.3492 218.697 98.0274C217.637 98.7978 215.182 100.445 214.399 101.359C215.868 100.394 217.414 99.2015 218.857 98.1526C219.336 97.7694 219.793 97.4027 220.273 97.0195C219.92 97.4827 219.513 97.9171 219.121 98.3741C217.783 99.8988 208.241 110.664 207.392 110.729C208.984 108.226 210.56 105.701 212.136 103.176C210.864 104.412 207.037 109.435 210.472 104.49C210.269 104.258 214.976 98.0768 215.599 97.417C215.891 96.964 216.159 96.5275 216.434 96.052C218.471 92.8813 220.508 89.7107 222.561 86.5626C220.171 89.4378 217.821 92.3192 215.447 95.217C202.237 111.649 189.412 128.042 175.81 144.173C171.966 149.313 168.011 154.774 163.797 159.596C162.176 161.396 166.291 154.542 166.342 154.47C166.307 154.564 166.272 154.659 166.238 154.753C174.984 141.187 165.126 154.078 163.075 158.224C161.093 160.286 159.944 161.501 162.772 158.755C160.881 163.027 159.061 167.35 157.186 171.644C166.669 159.233 175.397 146.163 184.656 134.156C187.461 130.667 182.836 138.478 182.785 138.55C185.545 134.716 187.845 132.285 190.939 128.863C189.835 130.425 187.167 134.434 185.962 135.62C184.515 137.327 183.045 139.051 181.582 140.735C180.076 143.451 178.322 145.588 176.551 148.083C179.363 144.935 182.175 141.787 184.986 138.639C182.351 141.935 179.715 145.23 177.096 148.548C176.856 148.929 172.672 154.075 174.334 152.143C171.393 155.729 168.501 159.383 165.61 163.037C163.968 166.61 159.88 172.41 157.537 175.872C153.011 182.301 147.545 188.482 142.636 194.671C145.489 190.252 148.254 185.759 151.178 181.392C152.237 179.863 153.297 178.334 154.373 176.828C143.556 189.726 152.014 178.37 155.51 173.794C157.213 169.073 158.932 164.375 160.634 159.654C159.306 161.24 157.839 162.824 156.302 164.218C152.037 167.974 161.722 155.794 162.392 154.962C162.497 154.679 162.624 154.38 162.728 154.097C154.393 164.674 146.124 175.341 138.021 186.095C146.997 172.086 148.782 169.374 159.687 156.929C159.566 156.81 160.517 155.464 160.591 155.375C157.336 159.052 154.065 162.706 150.811 166.382C152.151 164.339 153.508 162.318 154.881 160.32C152.862 162.994 150.827 165.646 148.808 168.321C118.549 201.355 144.795 168.962 154.534 157.33C144.613 168.474 134.939 179.817 125.547 191.405C117.6 202.941 109.192 215.123 100.97 226.377C86.3126 245.654 72.6765 265.671 59.6923 286.112C34.6769 326.644 16.1525 362.595 4.96588 409.351C0.443375 431.57 -0.951876 449.275 1.97657 471.837C5.71478 495.086 12.2581 511.433 25.937 530.628C44.3784 555.188 64.7592 582.132 88.7609 601.684C87.902 601.308 107.461 615.366 121.419 621.909C161.746 638.937 203.311 637.617 246.402 637.636C328.966 636.303 427.374 616.141 515.208 610.633C560.595 608.74 603.53 608.735 647.983 619.35C646.439 619.265 644.564 619.387 642.969 619.374C645.347 619.611 647.847 619.828 650.194 620.259C654.12 621.061 658.578 622.785 662.334 624.159C659.757 622.653 656.793 621.704 653.962 620.796C655.67 621.107 657.383 621.378 659.091 621.689C661.159 620.978 677.148 626.665 680.202 627.928C679.794 627.603 679.386 627.279 678.956 626.971C684.226 628.864 688.562 630.988 693.342 633.962C702.544 640.031 708.272 645.729 712.978 655.757C727.6 686.439 744.655 722.318 721.567 658.754C720.575 656.82 719.543 654.88 718.551 652.947C715.026 646.819 703.097 634.629 704.657 635.115C701.947 632.81 699.331 630.918 696.342 628.987C693.259 627.022 690.25 625.347 686.956 623.707C688.696 624.442 690.43 625.216 692.136 626.045C691.361 625.643 688.923 624.518 688.542 623.899C682.503 621.944 676.157 620.42 670.239 618.205C664.391 615.801 680.689 619.401 680.978 619.467C685.082 621.035 689.11 622.831 693 624.865C703.602 628.261 690.981 622.988 695.423 624.31C694.205 623.299 692.959 622.343 691.69 621.403C688.749 620.438 685.75 619.584 682.755 618.83C651.798 608.197 663.572 612.258 679.776 618.099C670.39 615.853 661.232 614.442 651.663 613.226C648.088 612.859 644.485 612.548 640.945 612.087C633.043 610.935 650.978 611.62 651.987 611.68C656.297 612.064 660.557 612.519 664.825 613.175C673.165 614.836 681.459 617.048 689.429 620.047C683.445 617.742 677.718 615.836 671.536 614.158C665.181 612.054 659.071 610.427 652.562 608.917C648.727 608.05 644.957 607.273 641.114 606.584C638.992 606.368 628.959 605.697 629.766 606.144C623.424 605.858 617.029 605.783 610.679 605.296C605.282 604.461 603.925 603.827 597.538 603.573C599.284 603.511 613.542 604.352 604.63 603.28C604.63 603.28 607.86 603.173 609.477 603.169C618.734 602.061 625.158 603.218 634.142 603.204C640.581 603.765 646.937 604.213 653.38 604.874C653.457 604.887 665.248 606.694 660.125 605.005C664.088 605.572 654.964 602.55 653.937 602.228C652.744 601.819 651.544 601.449 650.351 601.041C651.585 601.316 652.78 601.585 653.967 602.033C655.443 602.546 656.595 603.088 658.145 603.513C658.84 603.663 661.937 604.274 659.227 603.864C659.471 603.963 668.8 606.698 665.248 606.315C668.718 607.723 677.746 610.85 667.554 607.259C672.008 608.125 677.221 609.37 681.384 611.067C684.082 612.313 672.728 609.257 671.5 608.943C671.299 608.951 671.143 608.926 670.971 608.879C672.312 609.49 687.278 616.472 678.796 612.294C678.945 612.358 692.034 616.946 685.985 615.309C683.631 614.537 681.893 614.042 679.542 613.131C683.796 615.522 686.965 617.7 691.53 619.761C694.34 620.925 696.966 622.119 699.672 623.566C701.509 624.576 703.278 625.634 704.961 626.859C707.253 628.779 699.308 624.487 699.158 624.423C697.219 623.557 694.925 622.535 692.932 621.88C695.579 623.956 695.462 624.316 698.506 625.517C699.293 625.842 700.074 626.205 700.855 626.568C699.383 625.397 701.382 626.771 701.669 626.977C703.701 628.017 705.648 629.084 707.616 630.274C708.809 631.441 709.957 632.641 711.054 633.913C709.662 632.994 708.219 632.146 706.77 631.338C704.998 630.039 703.063 627.756 701.231 626.847C702.801 628.154 704.332 629.455 705.806 630.866C703.672 629.59 701.542 628.414 699.351 627.248C704.179 630.808 709.834 633.42 714.433 637.802C721.52 648.546 725.14 645.846 721.767 640.78C719.76 638.067 717.544 635.54 715.141 633.183C717.427 635.142 725.171 645.272 719.272 636.732C724.366 641.891 718.747 636.01 717.177 634.703C714.829 630.858 704.834 623.745 701.021 621.344C695.974 618.289 691.107 615.861 685.659 613.581C683.541 612.706 681.378 611.865 679.203 611.101C684.021 612.323 687.79 614.238 692.308 616.092C691.119 615.404 689.032 613.956 688.069 613.484C688.362 613.65 690.478 614.664 688.944 613.882C690.625 614.487 704.279 618.527 695.991 612.862C698.627 614.118 701.173 615.44 703.763 616.868C704.443 617.235 705.118 617.642 705.792 618.048C705.583 617.855 704.045 616.593 703.996 616.526C703.947 616.458 702.961 615.623 702.801 615.498C700.585 614.109 699.937 614.166 698.016 612.045C685.223 604.828 684.741 605.351 696.395 611.569C691.186 609.666 685.963 607.98 680.662 606.282C676.399 605.726 671.928 604.459 667.668 603.624C667.599 603.434 665.71 600.22 666.458 600.538C665.313 600.337 664.206 600.142 663.07 600.002C660.26 599.596 657.427 599.207 654.617 598.802C651.077 598.341 647.559 597.864 644.085 597.114C636.57 595.404 653.907 596.973 654.965 597.101C659.011 597.642 663.168 598.24 667.155 599.032C670.593 600.395 673.176 601.103 676.708 602.122C675.445 601.902 674.16 601.698 672.897 601.478C674.914 602.357 676.919 603.313 678.799 604.43C686.791 605.895 689.747 607.022 696.93 610.456C696.983 609.865 697.167 609.835 697.43 609.437C695.517 608.276 692.916 606.546 690.778 605.928C692.836 607.053 694.871 608.193 696.895 609.412C690.382 607.043 670.16 600.226 690.534 605.829C688.802 604.916 690.22 605.54 691.056 605.932C693.565 606.729 696.029 607.558 698.459 608.482C700.133 609.506 701.741 610.579 703.342 611.691C701.611 611.018 699.836 610.377 698.071 609.798C699.551 610.791 705.031 614.773 704.404 614.574C704.508 614.671 704.828 614.921 704.916 614.995C705.876 615.746 706.851 616.519 707.782 617.325C707.259 617.222 706.727 617.058 706.21 616.916C708.174 618.006 710.062 619.323 711.917 620.595C712.339 619.185 712.739 617.791 713.122 616.375C714.272 617.435 727.659 632.152 719.713 626.342C718.022 624.916 716.146 623.521 714.25 622.382C716.911 624.62 734.507 641.002 720.962 630.951C725.798 635.849 729.07 640.161 732.435 646.163C732.451 646.186 732.82 646.883 732.864 646.99C732.794 646.799 732.585 646.227 732.587 646.087C732.531 645.679 732.394 645.159 732.3 644.744C732.668 645.062 732.96 645.368 733.238 645.752C736.87 651.836 739.008 658.523 742.262 664.847C741.309 663.299 740.372 661.773 739.419 660.225C739.109 662.312 737.515 660.782 736.735 659.9C735.993 657.267 735.228 654.65 734.441 652.05C733.34 650.299 732.261 648.531 731.16 646.78C731.101 646.65 730.406 645.742 730.236 645.555C713.134 615.917 722.145 631.298 728.485 643.242C726.892 641.193 725.268 639.339 723.488 637.46C723.901 638.264 725.057 640.802 724.854 641.708C726.402 643.79 727.692 645.611 729.014 647.857C729.24 648.072 732.004 653.581 732.377 654.378C735.313 660.692 727.856 648.492 727.823 648.447C726.921 647.206 726.019 645.965 725.072 644.757C725.558 646.232 725.989 647.677 726.352 649.172C728.128 653.985 729.864 658.791 731.55 663.669C732.827 665.948 734.066 668.22 735.343 670.498C733.116 664.876 739.021 674.894 739.564 675.499C740.952 677.835 742.341 680.171 743.712 682.484C746.55 688.662 749.259 694.901 751.648 701.268C747.879 694.662 743.332 687.933 739.871 681.276C737.291 675.738 734.589 670.219 731.858 664.756C734.971 673.873 735.668 676.918 739.876 685.549C742.15 695.172 743.994 705.625 743.643 715.57C744.396 717.885 745.065 720.985 745.832 723.083C746.203 724.399 746.388 726.265 746.529 727.645C747.209 736.117 746.261 742.254 745.756 750.519C745.103 759.717 744.947 768.556 743.636 777.75C742.856 781.559 742.57 785.147 741.886 788.851C740.866 793.421 739.956 798.047 738.975 802.623C736.081 819.831 732.445 835.544 727.379 852.228C730.557 845.365 732.661 837.594 735.337 830.373C735.673 829.128 738.586 819.769 736.416 826.312C736.834 824.042 739.436 815.013 738.019 822.733C735.903 830.961 740.789 812.512 741.01 811.489C741.583 808.865 742.067 806.307 742.445 803.652C744.268 793.361 743.833 786.505 746.102 775.785C747.407 770.423 746.091 782.69 745.974 783.81C747.486 775.366 748.534 767.327 749.689 758.867C749.492 761.63 745.298 786.198 750.161 777.766C749.968 779.492 749.692 781.245 749.383 782.952C751.007 777.081 752.531 771.214 753.89 765.261C753.171 769.439 752.335 773.599 751.444 777.729C750.036 802.479 742.204 821 756.101 776.93C755.042 781.493 753.965 786.173 752.967 790.726C751.629 795.665 750.298 800.564 748.905 805.474C747.749 809.383 746.553 813.046 744.831 816.746C742.489 820.966 746.105 808.543 746.14 808.449C746.213 807.223 746.349 805.987 746.461 804.767C747.806 796.237 751.683 769.383 746.429 796.997C746.669 796.236 747.538 793.639 747.53 794.955C746.698 798.077 745.805 801.21 744.934 804.326C744.11 807.269 743.389 810.069 742.777 813.066C742.298 814.967 739.835 824.378 741.287 816.943C737.104 829.295 734.877 838.604 731.267 850.987C734.392 843.198 738.625 835.465 741.129 827.438C741.668 825.666 743.011 818.793 742.037 825.226C742.217 824.715 742.391 824.244 742.571 823.734C742.037 825.605 741.463 827.47 740.873 829.313C740.226 831.267 739.562 833.198 738.898 835.129C734.923 846.915 730.096 858.667 724.92 870.223L773.121 835.181C774.313 831.038 775.522 826.917 776.911 823.045C778.913 817.693 776.742 828.548 776.695 828.72C777.768 823.94 778.919 819.171 780.009 814.413C782.861 802.788 785.577 791.261 788.1 779.564C788.52 777.914 788.924 776.241 789.327 774.568C790.701 764.086 790.466 754.947 790.618 744.491C790.68 743.722 790.681 742.445 791.055 744.001C791.267 740.501 791.302 736.993 791.236 733.49C791.507 735.948 791.693 738.433 791.841 740.912C791.778 742.578 791.27 744.534 791.475 746.143C791.627 744.93 791.891 742.496 791.891 742.496C792.103 748.618 792.241 754.828 792.129 760.979C792.701 757.736 793.211 754.503 793.61 751.213C794.006 741.234 792.998 731.932 790.344 722.309C790.344 722.309 790.154 721.62 790.121 721.575C790.135 721.737 790.139 722.217 790.16 722.34C790.363 725.606 790.423 728.77 790.364 732.054C789.916 734.139 788.313 723.924 788.042 722.603C787.571 720.533 787.021 718.07 786.336 716.085C786.89 718.269 787.388 720.424 787.819 722.628C788.121 724.133 788.377 725.671 788.617 727.186C788.277 725.675 787.959 724.147 787.618 722.636C785.803 714.783 782.61 703.518 779.14 696.281C780.674 700.856 782.13 705.418 783.267 710.109C782.338 707.647 781.364 705.217 780.345 702.819L782.034 708.177C783.702 713.172 784.645 717.694 785.4 722.904C785.694 724.966 785.893 726.994 786.063 729.077C786.408 730.309 786.656 731.646 786.878 732.899C785.069 715.765 788.896 739.467 789.152 742.901C788.86 747.286 788.272 751.645 787.986 756.37C787.501 762.861 786.66 769.335 785.607 775.756C786.768 764.601 787.34 753.254 786.734 742.039C786.623 745.395 786.396 748.732 786.052 752.051C785.381 742.264 785.176 732.929 784.031 723.106C783.42 718.378 782.681 713.949 781.616 709.309C780.7 707.148 779.564 704.732 778.877 702.507C778.696 701.88 778.59 701.543 779.088 702.181C779.539 702.991 779.99 703.801 780.441 704.611C780.072 703.156 779.658 701.732 779.244 700.309C772.211 685.801 764.938 673.57 757.34 659.61C754.059 652.443 777.241 690.351 782.183 701.793C781.857 701.203 781.537 700.573 781.195 699.96C782.737 704.356 784.097 709.782 785.661 713.782C789.542 719.168 784.785 708.074 783.987 705.413C781.421 693.588 777.279 682.012 772.741 670.794C766.652 658.91 760.701 647.028 754.489 635.165C744.553 617.421 733.505 606.728 716.173 596.397C714.381 595.355 712.616 594.396 710.79 593.448C710.203 593.116 709.738 592.902 710.695 593.034C712.477 593.635 715.211 594.648 717.036 594.977C717.737 595.088 717.911 594.995 717.355 594.468C712.896 590.847 702.711 586.838 697.11 585.013C699.472 585.986 701.833 586.959 704.182 588.01C697.791 586.139 691.455 584.676 685.055 582.983C680.369 581.562 690.049 583.216 690.11 583.205C658.083 575.557 676.651 579.197 693.871 582.643C692.092 581.902 690.313 581.161 688.505 580.476C695.011 582.505 701.407 584.855 707.634 587.638C708.764 588.197 709.91 588.777 711.033 589.374C709.606 588.929 709.768 588.915 709.635 588.874C710.641 589.452 711.642 590.07 712.62 590.704C712.337 590.599 712.076 590.478 711.794 590.373C713.704 591.674 715.553 592.985 717.39 594.374C731.111 604.952 731.207 604.847 717.658 593.937C716.105 592.653 714.506 591.402 712.907 590.15C714.7 591.053 716.488 591.995 718.253 592.954C723.341 595.876 721.723 595.12 718.384 592.755C717.496 592.055 717.576 591.928 718.681 592.263C718.759 592.275 718.964 592.368 719.058 592.403C719.025 592.357 718.829 592.087 718.812 592.064C718.779 592.019 718.675 591.923 718.636 591.916C716.395 590.304 714.097 588.802 711.754 587.333C714.329 588.599 716.797 589.908 719.269 591.318C721.52 592.613 723.648 593.928 725.819 595.35C730.275 597.972 734.543 600.904 738.607 604.123C735.154 601.839 732.155 599.847 728.761 597.453C734.39 601.499 739.675 606.208 743.849 611.76C744.161 612.189 744.466 612.657 744.755 613.102C750.975 618.339 752.71 621.388 757.407 627.422C757.425 626.926 757.265 626.422 757.261 625.942C758.306 628.044 759.252 630.15 760.168 632.311C766.279 646.594 764.626 643.657 761.15 633.804C760.919 633.249 760.703 632.716 760.472 632.16C758.175 626.346 755.77 621.474 752.541 616.132C753.812 617.69 755.042 619.382 756.155 621.056C754.248 615.304 746.812 604.365 755.359 617.876C775.619 639.77 760.779 618.694 753.551 611.88C751.609 606.223 748.927 600.827 745.794 595.76C745.111 595.152 741.981 592.6 744.584 594.949C743.955 594.51 734.89 588.583 739.687 591.199C737.401 589.619 735.081 588.134 732.692 586.697C732.391 586.71 732.112 586.705 731.811 586.717C731.376 586.309 730.925 585.878 730.513 585.454C728.634 584.338 726.725 583.277 724.794 582.232C715.651 577.43 713.126 575.852 725.382 581.287C725.958 581.558 726.512 581.846 727.088 582.117C726.895 581.946 725.79 580.853 725.731 580.724C725.056 579.938 722.426 576.368 721.784 576.006C715.421 572.563 716.022 573.057 721.019 576.045C718.443 574.918 715.782 573.818 713.234 572.636C710.688 571.314 717.362 573.669 717.457 573.704C719.867 574.745 722.249 575.841 724.596 577.031C724.158 576.901 723.742 576.756 723.319 576.649C724.611 577.193 725.851 577.808 727.124 578.469C727.733 578.785 740.028 585.744 736.905 586.566C738.668 587.664 740.441 588.823 742.169 590.015C737.64 585.066 733.343 581.051 728.089 576.905C705.388 559.994 690.667 554.868 663.043 557.778C624.554 565.035 588.74 565.07 549.592 566.634C512.162 571.983 516.503 567.999 542.33 571.672C544.735 571.993 547.133 572.353 549.531 572.713C551.618 573.023 553.654 573.406 555.734 573.755C557.546 573.403 559.385 573.136 561.24 572.891C623.741 574.867 664.571 573.909 563.764 577.263C562.72 577.297 563.755 577.062 564.053 576.949C556.653 575.777 549.235 574.722 541.798 573.783C532.109 575.103 522.243 575.895 512.466 577.141C506.215 577.927 499.85 578.796 493.685 580.174C455.446 588.25 391.357 585.702 321.003 600.607C316.631 601.372 317.324 601.282 320.739 600.765C320.962 600.741 323.438 600.354 321.87 600.805C324.779 600.207 327.687 599.61 330.579 598.99C324.892 600.505 319.22 602.042 313.555 603.54C311.151 603.977 308.742 604.314 306.334 604.651C318.454 604.116 325.571 603.667 337.537 599.933C320.965 603.256 335.198 598.944 340.246 598.067C343.296 597.332 346.323 596.614 349.357 595.857C355.896 594.896 361.969 594.481 368.21 593.633C361.678 595.313 355.096 596.926 348.544 598.483C351.774 597.996 355.047 597.617 358.278 597.13C310.135 609.026 297.167 614.937 250.526 610.981C254.943 610.563 259.395 610.051 263.798 609.471C275.172 609.237 287.747 608.853 266.485 609.138C273.021 608.317 281.725 606.921 287.993 606.537C292.512 605.975 296.772 605.672 301.248 604.624C305.743 603.839 310.238 603.054 314.739 602.23C315.178 601.98 316.022 601.435 316.022 601.435C312.472 602.051 308.9 602.682 305.321 603.353C293.723 604.37 282.089 605.242 270.445 605.673C275.591 604.931 280.728 604.128 285.854 603.264C301.486 602.865 319.999 602.924 289.23 602.74C299.565 601.124 309.943 599.614 320.329 598.305C321.167 598.178 322.005 598.051 322.844 597.925C422.48 581.111 303.592 597.23 279.336 600.175C275.291 600.632 271.294 600.917 267.236 601.212C264.61 601.535 259.873 600.565 257.776 601.331C256.883 601.429 254.464 601.704 256.852 602.003C255.138 602.869 246.757 605.134 249.508 603.893C248.268 604.036 247.022 604.218 245.782 604.361C243.102 604.516 210.952 606.509 232.567 603.485C229.83 603.371 225.843 601.821 223.351 602.185C221.404 605.29 179.974 603.478 241.131 605.88C242.711 605.731 244.253 605.576 245.81 605.444C246.761 605.235 247.729 605.049 248.696 604.863C251.396 604.452 254.071 604.197 256.766 603.686C254.372 603.806 256.817 603.614 257.527 603.547C255.061 604.374 266.57 602.145 268.554 601.84C267.412 602.119 257.381 604.342 257.422 604.588C253.69 605.474 249.668 606.294 245.864 606.75C230.911 607.655 215.972 608.342 201.015 609.147C197.994 609.067 186.8 608.791 187.874 608.562C188.188 608.472 188.479 608.398 188.792 608.308C192.009 608.039 193.679 607.825 196.981 607.769C191.316 607.37 185.685 606.498 180.036 606.123C179.939 606.227 179.826 606.309 179.73 606.413C179.634 606.518 179.521 606.6 179.425 606.704C181.134 606.496 178.263 606.86 179.972 606.651C182.079 606.706 184.432 606.719 186.515 606.929C189.237 607.261 180.259 606.857 179.134 606.778C178.839 607.131 178.505 607.477 178.209 607.829C177.275 608.061 176.648 608.999 176.08 609.688C173.6 608.836 171.21 607.918 168.821 606.861C163.033 606.862 165.897 607.815 162.725 607.293C153.179 604.164 142.686 600.964 133.591 596.749C134.087 597.526 132.527 597.039 132.348 597.031C131.637 596.858 130.971 596.653 130.288 596.425C130.604 596.575 132.061 597.205 132.215 597.369C132.486 597.552 132.48 597.591 132.152 597.519C132.09 597.529 131.879 597.476 131.824 597.447C131.385 597.317 130.946 597.188 130.524 597.081C129.542 596.726 128.528 596.326 127.539 596.01C127.566 596.473 127.206 596.735 126.835 596.936C128.632 597.181 130.284 597.462 132.035 597.88C135.468 598.763 138.82 599.913 142.286 600.841C138.966 600.255 125.809 595.716 137.043 600.17C135.219 599.841 133.367 599.428 131.568 598.943C129.596 598.411 127.624 597.879 125.734 597.081C124.227 596.004 123.099 593.789 120.541 592.166C120.613 592.217 120.668 592.246 120.74 592.297C120.521 592.043 120.318 591.811 120.098 591.557C116.537 589.835 113.034 588.003 109.594 586.02C110.453 586.775 111.318 587.491 112.2 588.23C110.626 587.202 109.096 586.141 107.59 585.064C105.519 583.638 103.592 581.935 101.515 580.549C103.016 582.044 104.539 583.523 106.085 584.985C100.271 581.35 81.9073 567.182 100.722 579.884C91.1749 571.065 95.9822 574.881 104.772 580.146L105.233 577.984C112.148 585.267 109.797 582.839 117.783 586.998C122.982 589.978 127.939 592.34 133.598 594.295C138.493 595.908 139.291 595.915 133.973 593.436C128.656 590.956 124.046 588.549 119.021 585.478C146.67 598.102 125.537 583.017 114.475 584.059C114.206 583.737 113.97 583.46 113.702 583.138C107.183 580.049 102.775 575.977 97.5415 571.196C102.544 575.042 107.802 578.53 112.929 582.217C94.0281 557.025 74.5818 542.506 51.7084 514.788C56.6165 521.255 61.6087 527.695 66.7197 534.014C65.1104 532.322 63.4621 530.624 61.8528 528.932C64.1161 531.666 66.3405 534.394 68.4912 537.21C73.5529 542.702 79.0082 548.358 83.8506 553.975C83.8506 553.975 84.8162 555.067 84.3016 554.785C89.9024 560.024 95.495 565.821 101.004 570.886C105.899 575.155 105.94 575.78 101.122 571.144C103.447 574.247 107.361 575.885 109.554 578.049C110.612 578.935 106.664 576.254 106.641 576.27C104.673 574.701 102.75 573.099 100.856 571.441C100.079 572.316 94.1995 565.556 93.5189 564.809C92.4693 563.745 91.4258 562.641 90.4212 561.544C91.7251 563.148 93.0515 564.735 94.4067 566.267C92.6642 564.913 86.6986 560.216 85.9646 558.542C82.2233 555.434 67.231 539.884 81.7022 552.537C69.5064 541.023 58.3331 527.456 47.9572 514.274C47.8137 514.172 46.928 512.953 46.7476 512.705C43.2951 507.766 36.339 499.858 33.8069 495.664C33.9689 496.029 34.2765 496.736 34.2765 496.736C34.1842 496.562 34.0694 496.404 33.9546 496.246C33.4297 495.524 30.1964 489.702 33.2184 494.333C30.2162 485.653 28.0504 477.365 25.7144 468.511C22.2033 455.718 19.3368 449.595 20.0951 435.801C19.9642 437.517 19.8497 439.256 19.7577 440.978C19.6774 438.829 19.5972 436.681 19.5784 434.522C19.6706 434.317 19.7403 434.128 19.8325 433.923C20.0841 430.43 20.7886 426.469 20.6323 423.031C20.1777 425.913 19.8009 428.808 19.5021 431.715C19.5164 431.498 19.5615 431.086 19.5615 431.086C19.453 432.406 19.361 433.749 19.2854 435.114C18.7662 445.113 19.0322 455.196 20.4603 465.123C20.688 466.337 21.1659 467.99 21.4776 469.177C26.045 486.03 31.8723 497.932 42.3057 512.141C41.4057 511.14 40.5446 510.145 39.6897 509.112C39.7554 509.202 39.8045 509.27 39.8476 509.376C38.0189 507.05 36.2967 504.682 34.6483 502.225L34.7836 502.506C34.7836 502.506 32.8543 499.425 31.9235 497.86C32.0158 498.035 32.1778 498.4 32.1778 498.4C31.0029 496.357 20.2938 475.038 26.386 490.575C27.3616 490.211 28.7091 495.335 29.275 496.682C32.7217 503.177 37.9249 509.291 42.6054 514.923C43.1528 515.629 43.7002 516.334 44.264 517.063C54.6849 530.212 65.0361 542.79 76.4675 555.101C71.3382 550.416 66.3402 545.532 61.4712 540.589C55.4131 533.441 49.615 524.897 43.9647 517.315C43.3025 516.451 42.6301 515.526 41.9228 514.695C42.5112 515.647 43.1447 516.566 43.7782 517.485C48.5655 524.212 53.4265 530.851 58.4166 537.43C28.1284 504.965 75.1642 557.67 78.5674 561.403C88.648 573.799 42.2843 519.743 41.534 518.806C36.4639 512.354 32.6627 506.461 28.8532 499.231C22.1547 486.651 22.468 484.665 20.2872 472.043C20.0226 471.063 19.7806 470.066 19.5611 469.053C18.5929 464.688 17.8462 460.437 17.7553 455.952C17.7635 455.773 17.7733 453.18 18.2081 454.726C18.0228 449.446 18.1553 444.178 18.505 438.923C18.3139 435.958 18.1576 432.52 18.4626 429.574C18.5567 428.85 18.5936 428.237 18.8069 429.289C18.885 430.44 18.9794 431.612 19.0575 432.762C19.2683 430.919 19.5017 429.06 19.7741 427.207C19.9352 422.262 20.3219 417.532 20.9013 412.594C21.368 408.495 21.9331 404.533 22.695 400.461C21.9306 401.259 21.4447 400.922 21.0838 400.046C20.3383 404.14 19.7896 408.126 19.3167 412.263C18.8499 415.982 18.4611 419.713 18.1111 423.45C18.1028 422.491 18.117 421.515 18.1312 420.539C17.6051 425.266 17.2574 430.002 17.1269 434.752C17.0155 429.764 17.1274 424.751 17.4341 419.77C17.7392 417.203 18.0831 414.642 18.4886 412.072C18.4742 411.91 18.6135 411.153 18.6668 410.942C18.5889 411.309 18.5275 411.699 18.4496 412.065C17.8045 415.397 17.0793 418.096 16.5325 421.563C15.2962 419.531 15.6745 413.842 15.8423 411.513C16.9527 394.601 21.8369 378.188 27.666 362.363C30.803 354.496 23.6883 381.256 23.5142 382.106C24.5243 379.751 22.4869 393.681 22.0733 396.43C22.5836 395.473 23.0876 394.555 23.6143 393.62C24.7406 386.353 27.9542 370.533 25.4524 390.318C25.893 389.55 26.35 388.804 26.7906 388.035C26.3422 391.258 25.6458 394.661 24.3918 397.676C24.2444 398.99 24.0191 400.292 23.8943 401.59C24.2487 400.228 24.5805 398.884 24.9739 397.529C24.5724 399.062 24.2098 400.602 23.8636 402.164C24.0234 401.53 24.4373 400.298 24.4373 400.298C24.1874 401.756 23.8761 403.224 23.5483 404.669C23.4769 406.893 23.383 409.134 23.3116 411.359C23.242 411.926 23.1785 412.455 23.1089 413.023C22.4129 418.702 21.9484 424.178 21.7422 429.914C21.9574 429.309 22.15 428.721 22.3651 428.116C22.2953 427.546 22.5883 426.954 22.2727 427.183C22.2808 426.247 22.7291 422.265 22.6415 425.984C22.5863 426.714 22.5146 427.421 22.4594 428.151C23.379 423.207 24.4298 418.442 25.6773 413.57C27.1319 408.271 28.7176 403.152 30.494 397.964C32.3826 389.66 34.7468 381.63 37.5517 373.591C40.5021 365.514 44.4755 358.039 47.8134 350.164C54.104 335.97 80.7202 268.203 64.605 322.542C63.0476 325.709 65.2363 322.462 66.4721 321.46C68.0132 319.03 69.5768 316.582 71.1568 314.158C68.6568 318.872 66.2285 323.638 63.8946 328.438C65.5401 325.724 67.1857 323.011 68.8866 320.326C65.7063 326.569 62.6367 332.87 59.6942 339.251C59.2659 339.941 58.8602 340.616 58.4319 341.306C58.0036 341.997 57.565 342.626 57.1859 343.385C58.3252 340.591 59.903 337.547 60.7307 334.704C60.7491 334.587 60.7614 334.509 60.7798 334.392C60.4643 335.001 60.1364 335.688 59.7101 336.239C56.1365 343.458 52.5464 351.034 48.5689 358.029C41.3541 387.448 33.3884 412.516 45.3862 361.757C43.411 367.193 41.442 372.59 39.6001 378.067C31.8687 434.173 45.1833 375.698 59.2509 349.022C60.1177 347.702 60.9907 346.343 61.8576 345.023C62.4376 344.636 62.9951 344.265 63.5751 343.878C69.2571 330.505 75.2158 317.276 82.9026 304.86C81.2425 306.653 83.6606 302.205 84.2118 301.115C86.47 296.921 88.8328 292.824 91.3124 288.745C96.0648 282.152 100.944 275.639 105.912 269.2C104.08 272.084 102.27 274.951 100.477 277.841C104.607 271.908 106.799 267.624 110.369 261.442C110.112 259.525 109.856 257.608 109.622 255.674C112.463 252.851 115.77 249.722 118.961 247.333C119.402 246.564 122.583 241.459 123.036 241.371C125.761 237.631 122.773 241.768 123.98 240.442C122.79 242.549 121.599 244.657 120.409 246.764C120.855 247.094 118.017 250.916 117.771 251.336C115.499 255.368 113.226 259.399 110.986 263.476C114.839 258.158 118.731 252.846 122.639 247.556C122.616 247.193 122.678 246.804 122.794 246.443C145.379 223.471 198.853 148.801 226.212 116.944C228.266 114.555 230.26 112.036 232.209 109.55C246.193 92.0032 261.357 72.0479 273.542 53.2578C277.22 47.273 281.429 40.8334 284.538 34.5388C279.949 38.7025 275.328 42.8211 270.618 46.8659C275.903 41.5749 281.156 36.2388 286.376 30.8575C299.307 14.0421 312.22 -2.65654 324.871 -19.7161C325.408 -20.5892 325.974 -21.5177 326.472 -22.397C330.335 -28.0331 334.165 -33.7143 337.972 -39.3792C336.417 -36.7311 334.862 -34.083 333.306 -31.4349C327.084 -23.1183 322.348 -16.5027 331.429 -28.5185C342.942 -44.0615 354.218 -59.7419 365.372 -75.5414L297.422 -26.1407L297.487 -26.0504Z" fill="#D64C0C"/>
</svg>
