<svg width="49" height="37" viewBox="0 0 49 37" fill="none" xmlns="http://www.w3.org/2000/svg">
<g clip-path="url(#clip0_851_14231)">
<path d="M48.0124 2.93849L49 1.65743C45.8093 -0.603266 41.7829 -0.527909 38.5922 1.8835C35.9333 3.91812 32.5907 3.91812 29.8558 1.8835C26.5891 -0.527909 22.4109 -0.527909 19.1442 1.8835C16.4853 3.91812 13.1426 3.91812 10.4078 1.8835C7.29302 -0.527909 3.1907 -0.603266 0 1.65743L0.987597 2.93849C2.27907 2.03421 3.64651 1.58207 5.08992 1.58207C6.6093 1.58207 8.12868 2.10957 9.42015 3.0892C11.0155 4.2949 12.8388 4.89775 14.738 4.89775C16.6372 4.89775 18.4605 4.2949 20.0558 3.0892C22.7147 1.05458 26.0574 1.05458 28.7922 3.0892C32.0589 5.5006 36.2372 5.5006 39.5039 3.0892C42.1628 1.12993 45.3535 1.05458 48.0124 2.93849Z" fill="#D64C0C"/>
<path d="M0.987597 9.8711C3.64651 8.06255 6.83721 8.13791 9.42015 10.0972C12.6868 12.5086 16.8651 12.5086 20.1318 10.0972C21.4992 9.11754 23.0186 8.59004 24.462 8.59004C25.9814 8.59004 27.5008 9.11754 28.7922 10.0972C30.3876 11.3029 32.2109 11.9057 34.1101 11.9057C36.0093 11.9057 37.8326 11.3029 39.4279 10.0972C42.0109 8.13791 45.2015 8.06255 47.8605 9.8711L48.8481 8.59004C45.6574 6.32935 41.555 6.40471 38.4403 8.81611C35.7814 10.8507 32.4388 10.8507 29.7039 8.81611C26.4372 6.40471 22.2589 6.40471 18.9922 8.81611C16.3333 10.8507 12.9907 10.8507 10.2558 8.81611C7.29302 6.40471 3.1907 6.32935 0 8.59004L0.987597 9.8711Z" fill="#D64C0C"/>
<path d="M28.8682 16.9546C30.4636 18.1603 32.2868 18.7631 34.186 18.7631C36.0853 18.7631 37.9085 18.1603 39.5039 16.9546C42.0868 14.9953 45.2775 14.92 47.9364 16.7285L48.924 15.4475C45.7333 13.1868 41.707 13.2621 38.5163 15.6735C35.8574 17.7082 32.5147 17.7082 29.7798 15.6735C26.5132 13.2621 22.3349 13.2621 19.0682 15.6735C16.4093 17.7082 12.9907 17.7082 10.3318 15.6735C7.29302 13.3375 3.1907 13.2621 0 15.4475L0.987597 16.7285C3.64651 14.92 6.83721 14.9953 9.42015 16.9546C12.6868 19.366 16.8651 19.366 20.1318 16.9546C21.4992 15.975 23.0186 15.4475 24.462 15.4475C25.9814 15.4475 27.5008 15.975 28.8682 16.9546Z" fill="#D64C0C"/>
<path d="M28.8682 35.1909C30.4636 36.3966 32.2868 36.9995 34.186 36.9995C36.0853 36.9995 37.9085 36.3966 39.5039 35.1909C42.0868 33.2317 45.2775 33.1563 47.9364 34.9649L48.924 33.6838C45.7333 31.4231 41.707 31.4985 38.5163 33.9099C35.8574 35.9445 32.5147 35.9445 29.7798 33.9099C26.5132 31.4985 22.3349 31.4985 19.0682 33.9099C16.4093 35.9445 12.9907 35.9445 10.3318 33.9099C7.29302 31.4985 3.1907 31.4231 0 33.6838L0.987597 34.9649C3.64651 33.1563 6.83721 33.2317 9.42015 35.1909C12.6868 37.6023 16.8651 37.6023 20.1318 35.1909C21.4992 34.2113 23.0186 33.6838 24.462 33.6838C25.9814 33.6838 27.5008 34.1359 28.8682 35.1909Z" fill="#D64C0C"/>
</g>
<defs>
<clipPath id="clip0_851_14231">
<rect width="49" height="37" fill="white"/>
</clipPath>
</defs>
</svg>
