<svg width="87" height="39" viewBox="0 0 87 39" fill="none" xmlns="http://www.w3.org/2000/svg">
<path d="M4.2 8.69961C4.2 9.89961 3.3 10.7996 2.1 10.7996C0.9 10.7996 0 9.79961 0 8.69961C0 7.49961 0.9 6.59961 2.1 6.59961C3.3 6.59961 4.2 7.49961 4.2 8.69961Z" fill="#008060"/>
<path d="M31.7 8.69961C31.7 9.89961 30.8 10.7996 29.6 10.7996C28.4 10.7996 27.5 9.89961 27.5 8.69961C27.5 7.49961 28.4 6.59961 29.6 6.59961C30.8 6.59961 31.7 7.49961 31.7 8.69961Z" fill="#008060"/>
<path d="M59.3001 8.69961C59.3001 9.89961 58.4001 10.7996 57.2001 10.7996C56.0001 10.7996 55.1001 9.89961 55.1001 8.69961C55.1001 7.49961 56.0001 6.59961 57.2001 6.59961C58.3001 6.59961 59.3001 7.49961 59.3001 8.69961Z" fill="#008060"/>
<path d="M86.8001 8.69961C86.8001 9.89961 85.9001 10.7996 84.7001 10.7996C83.5001 10.7996 82.6001 9.89961 82.6001 8.69961C82.6001 7.49961 83.5001 6.59961 84.7001 6.59961C85.9001 6.59961 86.8001 7.49961 86.8001 8.69961Z" fill="#008060"/>
<path d="M4.2 36.0004C4.2 37.2004 3.3 38.1004 2.1 38.1004C0.9 38.1004 0 37.1004 0 36.0004C0 34.9004 0.9 33.9004 2.1 33.9004C3.3 33.9004 4.2 34.8004 4.2 36.0004Z" fill="#008060"/>
<path d="M31.7 36.0005C31.7 37.2005 30.8 38.1005 29.6 38.1005C28.4 38.1005 27.5 37.2005 27.5 36.0005C27.5 34.8005 28.4 33.9005 29.6 33.9005C30.8 33.8005 31.7 34.8005 31.7 36.0005Z" fill="#008060"/>
<path d="M59.3 36.0005C59.3 37.2005 58.4 38.1005 57.2 38.1005C56 38.1005 55 37.1005 55 36.0005C55 34.9005 55.9 33.9005 57.1 33.9005C58.3 33.8005 59.3 34.8005 59.3 36.0005Z" fill="#008060"/>
<path d="M84.7001 38.1004C85.8599 38.1004 86.8001 37.1602 86.8001 36.0004C86.8001 34.8406 85.8599 33.9004 84.7001 33.9004C83.5403 33.9004 82.6001 34.8406 82.6001 36.0004C82.6001 37.1602 83.5403 38.1004 84.7001 38.1004Z" fill="#008060"/>
</svg>
