<svg width="1025" height="800" viewBox="0 0 1025 800" fill="none" xmlns="http://www.w3.org/2000/svg">
<g opacity="0.3">
<path d="M982.57 944.526C982.57 944.526 1016.97 857.022 1083.64 842.808C1147.92 828.974 1181.57 739.603 1181.57 739.603" stroke="#6C6C6C" stroke-opacity="0.15" stroke-width="2" stroke-miterlimit="10"/>
<path d="M930.816 936.915C930.816 936.915 975.589 812.713 1065.78 791.997C1152.29 772.352 1195.42 645.417 1195.42 645.417" stroke="#6C6C6C" stroke-opacity="0.15" stroke-width="2" stroke-miterlimit="10"/>
<path d="M879.209 929.327C879.209 929.327 934.236 768.261 1047.89 741.329C1156.83 715.608 1209.25 551.375 1209.25 551.375" stroke="#6C6C6C" stroke-opacity="0.15" stroke-width="2" stroke-miterlimit="10"/>
<path d="M827.455 921.717C827.455 921.717 892.735 723.786 1030.02 690.518C1161.24 658.7 1223.1 457.189 1223.1 457.189" stroke="#6C6C6C" stroke-opacity="0.15" stroke-width="2" stroke-miterlimit="10"/>
<path d="M775.847 914.127C775.847 914.127 851.504 679.497 1012.14 639.848C1165.62 602.077 1236.93 363.146 1236.93 363.146" stroke="#6C6C6C" stroke-opacity="0.15" stroke-width="2" stroke-miterlimit="10"/>
<path d="M724.24 906.539C724.24 906.539 810.15 635.045 994.419 589.059C1170.17 545.19 1250.8 268.818 1250.8 268.818" stroke="#6C6C6C" stroke-opacity="0.15" stroke-width="2" stroke-miterlimit="10"/>
<path d="M672.488 898.928C672.488 898.928 768.652 590.57 976.41 538.226C1174.57 488.424 1264.65 174.631 1264.65 174.631" stroke="#6C6C6C" stroke-opacity="0.15" stroke-width="2" stroke-miterlimit="10"/>
<path d="M620.877 891.34C620.877 891.34 727.275 546.261 958.665 487.579C1178.96 431.659 1278.5 80.4456 1278.5 80.4456" stroke="#6C6C6C" stroke-opacity="0.15" stroke-width="2" stroke-miterlimit="10"/>
<path d="M569.267 883.75C569.267 883.75 686.062 501.828 940.799 436.767C1183.49 374.915 1292.32 -13.5973 1292.32 -13.5973" stroke="#6C6C6C" stroke-opacity="0.15" stroke-width="2" stroke-miterlimit="10"/>
<path d="M517.516 876.141C517.516 876.141 644.565 457.355 922.913 386.1C1187.89 318.15 1306.17 -107.782 1306.17 -107.782" stroke="#6C6C6C" stroke-opacity="0.15" stroke-width="2" stroke-miterlimit="10"/>
<path d="M465.908 868.551C465.908 868.551 603.19 413.044 905.049 335.287C1192.42 261.405 1320.03 -201.969 1320.03 -201.969" stroke="#6C6C6C" stroke-opacity="0.15" stroke-width="2" stroke-miterlimit="10"/>
<path d="M414.298 860.962C414.298 860.962 561.833 368.592 887.161 284.619C1196.82 204.64 1333.87 -296.155 1333.87 -296.155" stroke="#6C6C6C" stroke-opacity="0.15" stroke-width="2" stroke-miterlimit="10"/>
<path d="M362.547 853.352C362.547 853.352 520.48 324.139 869.297 233.808C1201.21 147.875 1347.7 -390.197 1347.7 -390.197" stroke="#6C6C6C" stroke-opacity="0.15" stroke-width="2" stroke-miterlimit="10"/>
<path d="M310.939 845.763C310.939 845.763 479.105 279.829 851.411 183.139C1205.75 91.1301 1361.55 -484.383 1361.55 -484.383" stroke="#6C6C6C" stroke-opacity="0.15" stroke-width="2" stroke-miterlimit="10"/>
<path d="M259.329 838.174C259.329 838.174 437.748 235.376 833.687 132.349C1210.14 34.3653 1375.4 -578.569 1375.4 -578.569" stroke="#6C6C6C" stroke-opacity="0.15" stroke-width="2" stroke-miterlimit="10"/>
<path d="M207.58 830.564C207.58 830.564 396.397 190.923 815.682 81.5168C1214.53 -22.3999 1389.26 -672.755 1389.26 -672.755" stroke="#6C6C6C" stroke-opacity="0.15" stroke-width="2" stroke-miterlimit="10"/>
<path d="M155.969 822.975C155.969 822.975 355.019 146.613 797.937 30.8691C1219.07 -79.1446 1403.1 -766.941 1403.1 -766.941" stroke="#6C6C6C" stroke-opacity="0.15" stroke-width="2" stroke-miterlimit="10"/>
<path d="M104.359 815.386C104.359 815.386 313.663 102.16 780.071 -19.9427C1223.46 -135.91 1416.93 -860.984 1416.93 -860.984" stroke="#6C6C6C" stroke-opacity="0.15" stroke-width="2" stroke-miterlimit="10"/>
<path d="M52.6106 807.775C52.6106 807.775 272.168 57.6858 762.187 -70.6108C1227.88 -192.819 1430.79 -955.17 1430.79 -955.17" stroke="#6C6C6C" stroke-opacity="0.15" stroke-width="2" stroke-miterlimit="10"/>
<path d="M1.00023 800.187C1.00023 800.187 230.934 13.3977 744.32 -121.422C1232.41 -249.563 1444.63 -1049.35 1444.63 -1049.35" stroke="#6C6C6C" stroke-opacity="0.15" stroke-width="2" stroke-miterlimit="10"/>
</g>
</svg>
