<svg width="87" height="49" viewBox="0 0 87 49" fill="none" xmlns="http://www.w3.org/2000/svg">
<path d="M4.2 2.1C4.2 3.3 3.3 4.2 2.1 4.2C0.9 4.2 0 3.3 0 2.1C0 0.9 0.9 0 2.1 0C3.3 0 4.2 0.9 4.2 2.1Z" fill="#D64C0C"/>
<path d="M31.7 2.1C31.7 3.3 30.8 4.2 29.6 4.2C28.4 4.2 27.5 3.3 27.5 2.1C27.5 0.9 28.5 0 29.6 0C30.8 0 31.7 0.9 31.7 2.1Z" fill="#D64C0C"/>
<path d="M59.3 2.1C59.3 3.3 58.4 4.2 57.2 4.2C56 4.2 55 3.3 55 2.1C55 0.9 56 0 57.2 0C58.3 0 59.3 0.9 59.3 2.1Z" fill="#D64C0C"/>
<path d="M84.7001 4.2C85.8599 4.2 86.8001 3.2598 86.8001 2.1C86.8001 0.940202 85.8599 0 84.7001 0C83.5403 0 82.6001 0.940202 82.6001 2.1C82.6001 3.2598 83.5403 4.2 84.7001 4.2Z" fill="#D64C0C"/>
<path d="M4.2 29.3998C4.2 30.5998 3.3 31.4998 2.1 31.4998C0.9 31.4998 0 30.5998 0 29.3998C0 28.1998 0.9 27.2998 2.1 27.2998C3.3 27.2998 4.2 28.1998 4.2 29.3998Z" fill="#D64C0C"/>
<path d="M31.7 29.3998C31.7 30.5998 30.8 31.4998 29.6 31.4998C28.4 31.4998 27.5 30.5998 27.5 29.3998C27.5 28.1998 28.4 27.2998 29.6 27.2998C30.8 27.2998 31.7 28.1998 31.7 29.3998Z" fill="#D64C0C"/>
<path d="M59.3001 29.3998C59.3001 30.5998 58.4001 31.4998 57.2001 31.4998C56.0001 31.4998 55.1001 30.5998 55.1001 29.3998C55.1001 28.1998 56.0001 27.2998 57.2001 27.2998C58.3001 27.2998 59.3001 28.1998 59.3001 29.3998Z" fill="#D64C0C"/>
<path d="M84.7001 31.4998C85.8599 31.4998 86.8001 30.5596 86.8001 29.3998C86.8001 28.24 85.8599 27.2998 84.7001 27.2998C83.5403 27.2998 82.6001 28.24 82.6001 29.3998C82.6001 30.5596 83.5403 31.4998 84.7001 31.4998Z" fill="#D64C0C"/>
</svg>
