<svg width="59" height="60" viewBox="0 0 59 60" fill="none" xmlns="http://www.w3.org/2000/svg">
<path d="M2.84516 2.3093C2.84516 3.1222 2.23548 3.73188 1.42258 3.73188C0.609677 3.73188 0 3.1222 0 2.3093C0 1.4964 0.609677 0.886719 1.42258 0.886719C2.23548 0.886719 2.84516 1.4964 2.84516 2.3093Z" fill="#D64C0C"/>
<path d="M21.4742 2.3093C21.4742 3.1222 20.8645 3.73188 20.0516 3.73188C19.2387 3.73188 18.629 3.1222 18.629 2.3093C18.629 1.4964 19.3064 0.886719 20.0516 0.886719C20.8645 0.886719 21.4742 1.4964 21.4742 2.3093Z" fill="#D64C0C"/>
<path d="M40.171 2.3093C40.171 3.1222 39.5613 3.73188 38.7484 3.73188C37.9355 3.73188 37.2581 3.1222 37.2581 2.3093C37.2581 1.4964 37.9355 0.886719 38.7484 0.886719C39.4935 0.886719 40.171 1.4964 40.171 2.3093Z" fill="#D64C0C"/>
<path d="M57.3772 3.73188C58.1628 3.73188 58.7998 3.09497 58.7998 2.3093C58.7998 1.52363 58.1628 0.886719 57.3772 0.886719C56.5915 0.886719 55.9546 1.52363 55.9546 2.3093C55.9546 3.09497 56.5915 3.73188 57.3772 3.73188Z" fill="#D64C0C"/>
<path d="M2.84516 20.8025C2.84516 21.6154 2.23548 22.225 1.42258 22.225C0.609677 22.225 0 21.6154 0 20.8025C0 19.9896 0.609677 19.3799 1.42258 19.3799C2.23548 19.3799 2.84516 19.9896 2.84516 20.8025Z" fill="#D64C0C"/>
<path d="M21.4742 20.8025C21.4742 21.6154 20.8645 22.225 20.0516 22.225C19.2387 22.225 18.629 21.6154 18.629 20.8025C18.629 19.9896 19.2387 19.3799 20.0516 19.3799C20.8645 19.3799 21.4742 19.9896 21.4742 20.8025Z" fill="#D64C0C"/>
<path d="M40.1707 20.8025C40.1707 21.6154 39.561 22.225 38.7481 22.225C37.9352 22.225 37.3256 21.6154 37.3256 20.8025C37.3256 19.9896 37.9352 19.3799 38.7481 19.3799C39.4933 19.3799 40.1707 19.9896 40.1707 20.8025Z" fill="#D64C0C"/>
<path d="M57.3772 22.225C58.1628 22.225 58.7998 21.5881 58.7998 20.8025C58.7998 20.0168 58.1628 19.3799 57.3772 19.3799C56.5915 19.3799 55.9546 20.0168 55.9546 20.8025C55.9546 21.5881 56.5915 22.225 57.3772 22.225Z" fill="#D64C0C"/>
<path d="M2.84516 39.2966C2.84516 40.1095 2.23548 40.7192 1.42258 40.7192C0.609677 40.7192 0 40.0418 0 39.2966C0 38.4837 0.609677 37.874 1.42258 37.874C2.23548 37.874 2.84516 38.4837 2.84516 39.2966Z" fill="#D64C0C"/>
<path d="M21.4742 39.2966C21.4742 40.1095 20.8645 40.7192 20.0516 40.7192C19.2387 40.7192 18.629 40.1095 18.629 39.2966C18.629 38.4837 19.2387 37.874 20.0516 37.874C20.8645 37.874 21.4742 38.4837 21.4742 39.2966Z" fill="#D64C0C"/>
<path d="M40.1707 39.2966C40.1707 40.1095 39.561 40.7192 38.7481 40.7192C37.9352 40.7192 37.3256 40.1095 37.3256 39.2966C37.3256 38.4837 37.9352 37.874 38.7481 37.874C39.4933 37.874 40.1707 38.4837 40.1707 39.2966Z" fill="#D64C0C"/>
<path d="M58.7998 39.2966C58.7998 40.1095 58.1901 40.7192 57.3772 40.7192C56.5643 40.7192 55.9546 40.1095 55.9546 39.2966C55.9546 38.4837 56.5643 37.874 57.3772 37.874C58.1901 37.874 58.7998 38.4837 58.7998 39.2966Z" fill="#D64C0C"/>
<path d="M2.84516 57.7898C2.84516 58.6027 2.23548 59.2123 1.42258 59.2123C0.609677 59.2123 0 58.5349 0 57.7898C0 57.0446 0.609677 56.3672 1.42258 56.3672C2.23548 56.3672 2.84516 56.9769 2.84516 57.7898Z" fill="#D64C0C"/>
<path d="M21.4742 57.7896C21.4742 58.6025 20.8645 59.2121 20.0516 59.2121C19.2387 59.2121 18.629 58.6025 18.629 57.7896C18.629 56.9767 19.2387 56.367 20.0516 56.367C20.8645 56.2992 21.4742 56.9767 21.4742 57.7896Z" fill="#D64C0C"/>
<path d="M40.171 57.7896C40.171 58.6025 39.5613 59.2121 38.7484 59.2121C37.9355 59.2121 37.2581 58.5347 37.2581 57.7896C37.2581 57.0444 37.8677 56.367 38.6806 56.367C39.4935 56.2992 40.171 56.9767 40.171 57.7896Z" fill="#D64C0C"/>
<path d="M57.3772 59.2123C58.1628 59.2123 58.7998 58.5754 58.7998 57.7898C58.7998 57.0041 58.1628 56.3672 57.3772 56.3672C56.5915 56.3672 55.9546 57.0041 55.9546 57.7898C55.9546 58.5754 56.5915 59.2123 57.3772 59.2123Z" fill="#D64C0C"/>
</svg>
