<svg width="62" height="62" viewBox="0 0 62 62" fill="none" xmlns="http://www.w3.org/2000/svg">
<path d="M2.98049 1.49024C2.98049 2.34181 2.34181 2.98049 1.49024 2.98049C0.638676 2.98049 0 2.34181 0 1.49024C0 0.638676 0.638676 0 1.49024 0C2.34181 0 2.98049 0.638676 2.98049 1.49024Z" fill="#D64C0C"/>
<path d="M22.4956 1.49024C22.4956 2.34181 21.8569 2.98049 21.0054 2.98049C20.1538 2.98049 19.5151 2.34181 19.5151 1.49024C19.5151 0.638676 20.2248 0 21.0054 0C21.8569 0 22.4956 0.638676 22.4956 1.49024Z" fill="#D64C0C"/>
<path d="M42.0817 1.49024C42.0817 2.34181 41.443 2.98049 40.5915 2.98049C39.7399 2.98049 39.0303 2.34181 39.0303 1.49024C39.0303 0.638676 39.7399 0 40.5915 0C41.3721 0 42.0817 0.638676 42.0817 1.49024Z" fill="#D64C0C"/>
<path d="M60.1062 2.98049C60.9292 2.98049 61.5965 2.31328 61.5965 1.49024C61.5965 0.667205 60.9292 0 60.1062 0C59.2832 0 58.616 0.667205 58.616 1.49024C58.616 2.31328 59.2832 2.98049 60.1062 2.98049Z" fill="#D64C0C"/>
<path d="M2.98049 20.8633C2.98049 21.7149 2.34181 22.3535 1.49024 22.3535C0.638676 22.3535 0 21.7149 0 20.8633C0 20.0117 0.638676 19.373 1.49024 19.373C2.34181 19.373 2.98049 20.0117 2.98049 20.8633Z" fill="#D64C0C"/>
<path d="M22.4956 20.8633C22.4956 21.7149 21.8569 22.3535 21.0054 22.3535C20.1538 22.3535 19.5151 21.7149 19.5151 20.8633C19.5151 20.0117 20.1538 19.373 21.0054 19.373C21.8569 19.373 22.4956 20.0117 22.4956 20.8633Z" fill="#D64C0C"/>
<path d="M42.0813 20.8633C42.0813 21.7149 41.4426 22.3535 40.5911 22.3535C39.7395 22.3535 39.1008 21.7149 39.1008 20.8633C39.1008 20.0117 39.7395 19.373 40.5911 19.373C41.3717 19.373 42.0813 20.0117 42.0813 20.8633Z" fill="#D64C0C"/>
<path d="M60.1062 22.3535C60.9292 22.3535 61.5965 21.6863 61.5965 20.8633C61.5965 20.0403 60.9292 19.373 60.1062 19.373C59.2832 19.373 58.616 20.0403 58.616 20.8633C58.616 21.6863 59.2832 22.3535 60.1062 22.3535Z" fill="#D64C0C"/>
<path d="M2.98049 40.2363C2.98049 41.0879 2.34181 41.7266 1.49024 41.7266C0.638676 41.7266 0 41.0169 0 40.2363C0 39.3848 0.638676 38.7461 1.49024 38.7461C2.34181 38.7461 2.98049 39.3848 2.98049 40.2363Z" fill="#D64C0C"/>
<path d="M22.4956 40.2363C22.4956 41.0879 21.8569 41.7266 21.0054 41.7266C20.1538 41.7266 19.5151 41.0879 19.5151 40.2363C19.5151 39.3848 20.1538 38.7461 21.0054 38.7461C21.8569 38.7461 22.4956 39.3848 22.4956 40.2363Z" fill="#D64C0C"/>
<path d="M42.0813 40.2363C42.0813 41.0879 41.4426 41.7266 40.5911 41.7266C39.7395 41.7266 39.1008 41.0879 39.1008 40.2363C39.1008 39.3848 39.7395 38.7461 40.5911 38.7461C41.3717 38.7461 42.0813 39.3848 42.0813 40.2363Z" fill="#D64C0C"/>
<path d="M61.5965 40.2363C61.5965 41.0879 60.9578 41.7266 60.1062 41.7266C59.2546 41.7266 58.616 41.0879 58.616 40.2363C58.616 39.3848 59.2546 38.7461 60.1062 38.7461C60.9578 38.7461 61.5965 39.3848 61.5965 40.2363Z" fill="#D64C0C"/>
<path d="M2.98049 59.6094C2.98049 60.461 2.34181 61.0996 1.49024 61.0996C0.638676 61.0996 0 60.39 0 59.6094C0 58.8288 0.638676 58.1191 1.49024 58.1191C2.34181 58.1191 2.98049 58.7578 2.98049 59.6094Z" fill="#D64C0C"/>
<path d="M22.4956 59.6094C22.4956 60.461 21.8569 61.0996 21.0054 61.0996C20.1538 61.0996 19.5151 60.461 19.5151 59.6094C19.5151 58.7578 20.1538 58.1192 21.0054 58.1192C21.8569 58.0482 22.4956 58.7578 22.4956 59.6094Z" fill="#D64C0C"/>
<path d="M42.0817 59.6094C42.0817 60.461 41.443 61.0996 40.5915 61.0996C39.7399 61.0996 39.0303 60.39 39.0303 59.6094C39.0303 58.8288 39.6689 58.1192 40.5205 58.1192C41.3721 58.0482 42.0817 58.7578 42.0817 59.6094Z" fill="#D64C0C"/>
<path d="M60.1062 61.0996C60.9292 61.0996 61.5965 60.4324 61.5965 59.6094C61.5965 58.7863 60.9292 58.1191 60.1062 58.1191C59.2832 58.1191 58.616 58.7863 58.616 59.6094C58.616 60.4324 59.2832 61.0996 60.1062 61.0996Z" fill="#D64C0C"/>
</svg>
