<svg width="44" height="44" viewBox="0 0 44 44" fill="none" xmlns="http://www.w3.org/2000/svg">
<g opacity="0.4">
<path d="M23.0086 0.250482C22.2363 -0.0834939 21.7637 -0.0834939 20.9913 0.250482C18.3352 1.39902 19.5858 11.1747 20.638 17.2227C18.3426 11.5292 14.2501 2.56371 11.3877 2.9885C10.5553 3.11202 10.1538 3.36125 9.67368 4.0523C8.16134 6.22911 13.2509 12.8274 17.2549 17.4437C12.4801 13.6302 5.68066 8.81254 3.567 10.412C2.896 10.9197 2.66327 11.331 2.57362 12.1677C2.28354 14.8749 10.3437 18.3329 16.1136 20.4502C10.0491 19.4517 1.33112 18.4923 0.250482 20.9913C-0.083494 21.7637 -0.083494 22.2363 0.250482 23.0086C1.33112 25.5077 10.0491 24.5483 16.1136 23.5498C10.3437 25.6671 2.28353 29.1251 2.57361 31.8323C2.66327 32.669 2.89599 33.0803 3.567 33.588C5.68064 35.1874 12.48 30.3698 17.2549 26.5564C13.2508 31.1726 8.16132 37.7709 9.67365 39.9477C10.1538 40.6387 10.5553 40.888 11.3877 41.0115C14.2501 41.4363 18.3427 32.4707 20.638 26.7771C19.5859 32.8251 18.3352 42.601 20.9913 43.7495C21.7637 44.0835 22.2363 44.0835 23.0086 43.7495C25.6648 42.6009 24.414 32.8244 23.3618 26.7765C25.6571 32.47 29.7499 41.4363 32.6124 41.0115C33.4448 40.888 33.8463 40.6387 34.3264 39.9477C35.8388 37.7709 30.7493 31.1726 26.7452 26.5564C31.5201 30.3699 38.3194 35.1874 40.4331 33.588C41.1041 33.0803 41.3368 32.669 41.4265 31.8323C41.7165 29.1251 33.6565 25.6671 27.8865 23.5498C33.951 24.5483 42.6689 25.5077 43.7495 23.0086C44.0835 22.2363 44.0835 21.7637 43.7495 20.9913C42.6689 18.4923 33.951 19.4517 27.8865 20.4502C33.6565 18.3329 41.7165 14.8749 41.4265 12.1677C41.3368 11.331 41.1041 10.9197 40.4331 10.412C38.3194 8.81254 31.52 13.6302 26.7451 17.4437C30.7492 12.8274 35.8387 6.22911 34.3264 4.0523C33.8463 3.36125 33.4447 3.11202 32.6124 2.9885C29.7499 2.56369 25.6571 11.5298 23.3618 17.2233C24.414 11.1754 25.6648 1.39906 23.0086 0.250482Z" fill="#F4ADB3"/>
</g>
</svg>
