<svg width="49" height="37" viewBox="0 0 49 37" fill="none" xmlns="http://www.w3.org/2000/svg">
<g opacity="0.4" clip-path="url(#clip0_851_13967)">
<path d="M0.987594 34.0615L-1.43446e-07 35.3426C3.1907 37.6033 7.21706 37.5279 10.4078 35.1165C13.0667 33.0819 16.4093 33.0819 19.1442 35.1165C22.4109 37.5279 26.5891 37.5279 29.8558 35.1165C32.5147 33.0819 35.8574 33.0819 38.5922 35.1165C41.707 37.5279 45.8093 37.6033 49 35.3426L48.0124 34.0615C46.7209 34.9658 45.3535 35.4179 43.9101 35.4179C42.3907 35.4179 40.8713 34.8904 39.5798 33.9108C37.9845 32.7051 36.1612 32.1022 34.262 32.1022C32.3628 32.1022 30.5395 32.7051 28.9442 33.9108C26.2853 35.9454 22.9426 35.9454 20.2078 33.9108C16.9411 31.4994 12.7628 31.4994 9.49612 33.9108C6.83721 35.8701 3.64651 35.9454 0.987594 34.0615Z" fill="#D64C0C"/>
<path d="M48.0124 27.1289C45.3535 28.9375 42.1628 28.8621 39.5798 26.9028C36.3132 24.4914 32.1349 24.4914 28.8682 26.9028C27.5008 27.8825 25.9814 28.41 24.538 28.41C23.0186 28.41 21.4992 27.8825 20.2078 26.9028C18.6124 25.6971 16.7891 25.0943 14.8899 25.0943C12.9907 25.0943 11.1674 25.6971 9.57209 26.9028C6.98915 28.8621 3.79845 28.9375 1.13953 27.1289L0.151935 28.41C3.34263 30.6707 7.44496 30.5953 10.5597 28.1839C13.2186 26.1493 16.5612 26.1493 19.2961 28.1839C22.5628 30.5953 26.7411 30.5953 30.0078 28.1839C32.6667 26.1493 36.0093 26.1493 38.7442 28.1839C41.707 30.5953 45.8093 30.6706 49 28.41L48.0124 27.1289Z" fill="#D64C0C"/>
<path d="M20.1318 20.0454C18.5364 18.8397 16.7132 18.2369 14.814 18.2369C12.9147 18.2369 11.0915 18.8397 9.49613 20.0454C6.91318 22.0047 3.72248 22.08 1.06357 20.2715L0.0759696 21.5525C3.26667 23.8132 7.29303 23.7379 10.4837 21.3265C13.1426 19.2918 16.4853 19.2918 19.2202 21.3265C22.4868 23.7379 26.6651 23.7379 29.9318 21.3265C32.5907 19.2918 36.0093 19.2918 38.6682 21.3265C41.707 23.6625 45.8093 23.7379 49 21.5525L48.0124 20.2715C45.3535 22.08 42.1628 22.0047 39.5798 20.0454C36.3132 17.634 32.1349 17.634 28.8682 20.0454C27.5008 21.025 25.9814 21.5525 24.538 21.5525C23.0186 21.5525 21.4992 21.025 20.1318 20.0454Z" fill="#D64C0C"/>
<path d="M20.1318 1.80908C18.5364 0.603378 16.7132 0.000528297 14.814 0.000528463C12.9147 0.000528629 11.0915 0.603378 9.49613 1.80908C6.91318 3.76835 3.72248 3.8437 1.06357 2.03515L0.0759696 3.31621C3.26667 5.5769 7.29303 5.50155 10.4837 3.09014C13.1426 1.05552 16.4853 1.05552 19.2202 3.09014C22.4868 5.50154 26.6651 5.50154 29.9318 3.09014C32.5907 1.05552 36.0093 1.05552 38.6682 3.09014C41.707 5.50154 45.8093 5.5769 49 3.31621L48.0124 2.03515C45.3535 3.8437 42.1628 3.76834 39.5798 1.80908C36.3132 -0.602326 32.1349 -0.602326 28.8682 1.80908C27.5008 2.78871 25.9814 3.31621 24.538 3.31621C23.0186 3.31621 21.4992 2.86407 20.1318 1.80908Z" fill="#D64C0C"/>
</g>
<defs>
<clipPath id="clip0_851_13967">
<rect width="49" height="37" fill="white" transform="translate(49 37) rotate(180)"/>
</clipPath>
</defs>
</svg>
